<svg width="40" height="40" fill="none" xmlns="http://www.w3.org/2000/svg"><g clip-path="url(#clip0_4048_43097)"><circle cx="20" cy="20" r="19.5" fill="#fff" stroke="#DFDFDF"/><path fill-rule="evenodd" clip-rule="evenodd" d="M27.68 20.182c0-.567-.05-1.113-.145-1.637H20v3.095h4.305a3.68 3.68 0 01-1.596 2.415v2.007h2.585c1.513-1.393 2.386-3.444 2.386-5.88z" fill="#4285F4"/><path fill-rule="evenodd" clip-rule="evenodd" d="M20 28c2.16 0 3.971-.716 5.295-1.938l-2.586-2.007c-.716.48-1.632.763-2.709.763-2.083 0-3.847-1.407-4.476-3.298H12.85v2.073A7.997 7.997 0 0020.001 28z" fill="#34A853"/><path fill-rule="evenodd" clip-rule="evenodd" d="M15.524 21.52a4.81 4.81 0 01-.251-1.52c0-.527.09-1.04.25-1.52v-2.073h-2.672A7.997 7.997 0 0012 20c0 1.29.31 2.513.85 3.593l2.674-2.073z" fill="#FBBC05"/><path fill-rule="evenodd" clip-rule="evenodd" d="M20 15.182c1.175 0 2.23.403 3.058 1.196l2.295-2.294C23.968 12.793 22.157 12 20 12a7.997 7.997 0 00-7.149 4.407l2.673 2.073c.629-1.89 2.393-3.298 4.476-3.298z" fill="#EA4335"/></g><defs><clipPath id="clip0_4048_43097"><path fill="#fff" d="M0 0h40v40H0z"/></clipPath></defs></svg>